<svg id="Layer_1" data-name="Layer 1" xmlns="http://www.w3.org/2000/svg" viewBox="0 0 397 397"><defs><style>.cls-1{fill:#fff;}</style></defs><title>instagram</title><rect class="cls-1" x="5" y="5" width="387" height="387" rx="69.93"/><path d="M785.07,224A65,65,0,0,1,850,288.93V536.07A65,65,0,0,1,785.07,601H537.93A65,65,0,0,1,473,536.07V288.93A65,65,0,0,1,537.93,224H785.07m0-10H537.93A74.93,74.93,0,0,0,463,288.93V536.07A74.93,74.93,0,0,0,537.93,611H785.07A74.93,74.93,0,0,0,860,536.07V288.93A74.93,74.93,0,0,0,785.07,214Z" transform="translate(-463 -214)"/><circle class="cls-1" cx="198" cy="198" r="83"/><path d="M661,334a78,78,0,1,1-78,78,78.09,78.09,0,0,1,78-78m0-10a88,88,0,1,0,88,88,88,88,0,0,0-88-88Z" transform="translate(-463 -214)"/><circle class="cls-1" cx="315.5" cy="79.5" r="26.5"/><path d="M778.5,272A21.5,21.5,0,1,1,757,293.5,21.52,21.52,0,0,1,778.5,272m0-10A31.5,31.5,0,1,0,810,293.5,31.5,31.5,0,0,0,778.5,262Z" transform="translate(-463 -214)"/></svg>